<mxfile host="app.diagrams.net" agent="Mozilla/5.0 (X11; Linux x86_64; rv:128.0) Gecko/20100101 Firefox/128.0" version="26.2.13">
  <diagram name="Page-1" id="67uoJDIDDvPvO4UoLkpO">
    <mxGraphModel dx="948" dy="617" grid="1" gridSize="10" guides="1" tooltips="1" connect="1" arrows="1" fold="1" page="1" pageScale="1" pageWidth="827" pageHeight="1169" math="0" shadow="0">
      <root>
        <mxCell id="0" />
        <mxCell id="1" parent="0" />
        <mxCell id="-f6vMQ2dLlpIc5g9ewhE-1" value="Entity" style="whiteSpace=wrap;html=1;align=center;" vertex="1" parent="1">
          <mxGeometry x="120" y="560" width="160" height="35" as="geometry" />
        </mxCell>
        <mxCell id="-f6vMQ2dLlpIc5g9ewhE-2" value="Subject" style="whiteSpace=wrap;html=1;align=center;" vertex="1" parent="1">
          <mxGeometry x="120" y="120" width="160" height="35" as="geometry" />
        </mxCell>
        <mxCell id="-f6vMQ2dLlpIc5g9ewhE-3" value="Attribute" style="ellipse;whiteSpace=wrap;html=1;align=center;fontStyle=4;" vertex="1" parent="1">
          <mxGeometry x="350" y="560" width="100" height="40" as="geometry" />
        </mxCell>
        <mxCell id="-f6vMQ2dLlpIc5g9ewhE-4" value="Abr" style="ellipse;whiteSpace=wrap;html=1;align=center;fontStyle=4;" vertex="1" parent="1">
          <mxGeometry x="230" y="40" width="100" height="40" as="geometry" />
        </mxCell>
        <mxCell id="-f6vMQ2dLlpIc5g9ewhE-5" value="Attribute" style="ellipse;whiteSpace=wrap;html=1;align=center;" vertex="1" parent="1">
          <mxGeometry x="530" y="565" width="100" height="40" as="geometry" />
        </mxCell>
        <mxCell id="-f6vMQ2dLlpIc5g9ewhE-6" value="Name" style="ellipse;whiteSpace=wrap;html=1;align=center;" vertex="1" parent="1">
          <mxGeometry x="60" y="40" width="100" height="40" as="geometry" />
        </mxCell>
        <mxCell id="-f6vMQ2dLlpIc5g9ewhE-7" value="" style="endArrow=none;html=1;rounded=0;" edge="1" parent="1">
          <mxGeometry relative="1" as="geometry">
            <mxPoint x="600" y="510" as="sourcePoint" />
            <mxPoint x="760" y="510" as="targetPoint" />
          </mxGeometry>
        </mxCell>
        <mxCell id="-f6vMQ2dLlpIc5g9ewhE-8" value="" style="endArrow=none;html=1;rounded=0;" edge="1" parent="1" source="-f6vMQ2dLlpIc5g9ewhE-2" target="-f6vMQ2dLlpIc5g9ewhE-4">
          <mxGeometry relative="1" as="geometry">
            <mxPoint x="120" y="220" as="sourcePoint" />
            <mxPoint x="280" y="220" as="targetPoint" />
          </mxGeometry>
        </mxCell>
        <mxCell id="-f6vMQ2dLlpIc5g9ewhE-9" value="" style="endArrow=none;html=1;rounded=0;" edge="1" parent="1" source="-f6vMQ2dLlpIc5g9ewhE-2" target="-f6vMQ2dLlpIc5g9ewhE-6">
          <mxGeometry relative="1" as="geometry">
            <mxPoint x="233" y="130" as="sourcePoint" />
            <mxPoint x="287" y="88" as="targetPoint" />
          </mxGeometry>
        </mxCell>
      </root>
    </mxGraphModel>
  </diagram>
</mxfile>
